<?xml version="1.0" encoding="utf-8"?>
<!-- Generator: Adobe Illustrator 16.0.3, SVG Export Plug-In . SVG Version: 6.00 Build 0)  -->
<!DOCTYPE svg PUBLIC "-//W3C//DTD SVG 1.1//EN" "http://www.w3.org/Graphics/SVG/1.1/DTD/svg11.dtd">
<svg version="1.1" xmlns="http://www.w3.org/2000/svg" xmlns:xlink="http://www.w3.org/1999/xlink" x="0px" y="0px"
	 width="284.113px" height="130.702px" viewBox="0 0 284.113 130.702" enable-background="new 0 0 284.113 130.702"
	 xml:space="preserve">
<g id="Layer_1">
	<path fill="#E30613" d="M0,0v119.953c0,0,0,10.749,10.749,10.749h273.364V10.749c0,0,0-10.749-10.749-10.749H0z"/>
</g>
<g id="Layer_3">
	<path fill="none" stroke="#FFED00" stroke-width="0.5742" stroke-miterlimit="15.915" d="M272.482,93.646
		c-0.424-0.445-0.92-0.862-1.474-1.239c-0.554-0.375-1.172-0.705-1.84-0.981c-0.667-0.274-1.391-0.491-2.15-0.643
		c-0.762-0.153-1.559-0.229-2.367-0.229c-1.487,0-2.811,0.206-3.93,0.611c-1.126,0.408-2.075,0.966-2.824,1.663
		c-0.752,0.697-1.322,1.52-1.699,2.444c-0.375,0.919-0.564,1.902-0.564,2.92c0,1.093,0.156,2.041,0.467,2.819
		c0.311,0.777,0.725,1.444,1.229,1.984c0.502,0.535,1.08,0.984,1.723,1.333c0.628,0.342,1.274,0.638,1.922,0.879
		c0.645,0.242,1.278,0.457,1.901,0.645c0.603,0.183,1.147,0.381,1.616,0.592c0.447,0.202,0.813,0.442,1.086,0.715
		c0.243,0.244,0.362,0.552,0.362,0.94c0,0.214-0.042,0.425-0.127,0.629c-0.083,0.199-0.216,0.383-0.397,0.547
		c-0.18,0.166-0.431,0.299-0.744,0.398c-0.324,0.103-0.732,0.155-1.213,0.155c-0.686,0-1.256-0.084-1.697-0.25
		c-0.459-0.173-0.863-0.362-1.201-0.562l-0.99-0.583c-0.349-0.205-0.746-0.308-1.179-0.308c-0.467,0-0.858,0.103-1.16,0.306
		c-0.289,0.195-0.54,0.462-0.745,0.793l-1.535,2.559l-0.118,0.198l0.167,0.158c0.439,0.417,0.975,0.812,1.586,1.171
		c0.608,0.359,1.279,0.672,1.996,0.932c0.713,0.258,1.461,0.465,2.225,0.616c0.768,0.153,1.545,0.23,2.313,0.23
		c1.528,0,2.902-0.201,4.084-0.598c1.189-0.399,2.204-0.969,3.018-1.694c0.816-0.728,1.44-1.608,1.853-2.617
		c0.409-1,0.617-2.108,0.617-3.291c0-0.976-0.155-1.829-0.46-2.535c-0.305-0.704-0.717-1.312-1.223-1.806
		c-0.5-0.488-1.074-0.904-1.707-1.237c-0.619-0.326-1.262-0.613-1.907-0.856c-0.644-0.24-1.272-0.459-1.888-0.654
		c-0.596-0.19-1.138-0.393-1.609-0.604c-0.448-0.202-0.811-0.436-1.077-0.695c-0.235-0.229-0.35-0.514-0.35-0.87
		c0-0.508,0.182-0.891,0.556-1.172c0.395-0.296,0.984-0.446,1.756-0.446c0.549,0,1.043,0.067,1.468,0.2
		c0.441,0.138,0.839,0.288,1.19,0.446l1.012,0.46c0.348,0.158,0.703,0.239,1.056,0.239s0.651-0.075,0.887-0.223
		c0.233-0.145,0.441-0.375,0.638-0.701l1.49-2.441l0.114-0.188L272.482,93.646z M252.889,93.646
		c-0.424-0.445-0.92-0.862-1.474-1.239c-0.556-0.375-1.174-0.705-1.841-0.981c-0.666-0.274-1.391-0.491-2.15-0.643
		c-0.762-0.153-1.559-0.229-2.367-0.229c-1.488,0-2.811,0.206-3.931,0.611c-1.124,0.408-2.075,0.966-2.823,1.663
		c-0.751,0.697-1.323,1.52-1.7,2.444c-0.374,0.919-0.564,1.902-0.564,2.92c0,1.093,0.158,2.041,0.469,2.819
		c0.31,0.777,0.723,1.444,1.228,1.984c0.502,0.535,1.081,0.984,1.723,1.333c0.629,0.342,1.275,0.638,1.922,0.879
		c0.645,0.242,1.279,0.457,1.902,0.645c0.602,0.183,1.146,0.381,1.615,0.592c0.448,0.202,0.814,0.442,1.085,0.715
		c0.245,0.244,0.362,0.552,0.362,0.94c0,0.214-0.042,0.425-0.127,0.629c-0.082,0.199-0.215,0.383-0.396,0.547
		c-0.18,0.166-0.43,0.299-0.744,0.398c-0.325,0.103-0.732,0.155-1.212,0.155c-0.686,0-1.257-0.084-1.698-0.25
		c-0.459-0.173-0.863-0.362-1.201-0.562l-0.99-0.583c-0.35-0.205-0.745-0.308-1.178-0.308c-0.469,0-0.859,0.103-1.162,0.306
		c-0.289,0.195-0.539,0.462-0.743,0.793l-1.536,2.559l-0.117,0.198l0.167,0.158c0.439,0.417,0.973,0.812,1.585,1.171
		c0.607,0.359,1.28,0.672,1.996,0.932c0.713,0.258,1.463,0.465,2.224,0.616c0.769,0.153,1.547,0.23,2.314,0.23
		c1.526,0,2.901-0.201,4.083-0.598c1.188-0.399,2.204-0.969,3.017-1.694c0.817-0.728,1.44-1.608,1.853-2.617
		c0.41-1,0.618-2.108,0.618-3.291c0-0.976-0.155-1.829-0.46-2.535c-0.305-0.704-0.717-1.312-1.224-1.806
		c-0.5-0.488-1.074-0.904-1.706-1.237c-0.619-0.326-1.261-0.613-1.908-0.856c-0.643-0.24-1.271-0.459-1.887-0.654
		c-0.597-0.19-1.137-0.393-1.609-0.604c-0.449-0.202-0.812-0.436-1.076-0.695c-0.236-0.229-0.35-0.514-0.35-0.87
		c0-0.508,0.18-0.891,0.555-1.172c0.395-0.296,0.984-0.446,1.756-0.446c0.548,0,1.043,0.067,1.468,0.2
		c0.441,0.138,0.839,0.288,1.191,0.446l1.012,0.46c0.347,0.158,0.702,0.239,1.056,0.239c0.352,0,0.649-0.075,0.887-0.223
		c0.231-0.145,0.441-0.375,0.637-0.701l1.489-2.441l0.114-0.188L252.889,93.646z M224.963,95.763
		c0.535,0.273,0.973,0.637,1.303,1.081c0.326,0.439,0.564,0.945,0.708,1.501c0.142,0.545,0.212,1.113,0.212,1.686v0.287h-0.287
		h-8.242h-0.336l0.053-0.333c0.235-1.471,0.732-2.619,1.48-3.413c0.764-0.811,1.828-1.222,3.168-1.222
		C223.776,95.35,224.428,95.489,224.963,95.763z M218.23,91.499c-1.372,0.626-2.557,1.487-3.522,2.557
		c-0.965,1.069-1.715,2.33-2.229,3.748c-0.513,1.415-0.772,2.934-0.772,4.514c0,2.087,0.304,3.947,0.902,5.526
		c0.601,1.584,1.43,2.93,2.469,3.999c1.038,1.071,2.27,1.89,3.657,2.432c1.383,0.542,2.884,0.816,4.46,0.816
		c0.76,0,1.573-0.058,2.412-0.171c0.846-0.113,1.703-0.322,2.547-0.619c0.85-0.298,1.688-0.715,2.491-1.241
		c0.808-0.529,1.571-1.223,2.268-2.063l0.147-0.177l-0.142-0.182l-1.915-2.488c-0.314-0.47-0.797-0.717-1.42-0.717
		c-0.443,0-0.873,0.11-1.276,0.325c-0.362,0.195-0.762,0.413-1.194,0.652c-0.419,0.23-0.902,0.443-1.438,0.63
		c-0.52,0.182-1.154,0.275-1.885,0.275c-1.352,0-2.466-0.414-3.314-1.231c-0.805-0.775-1.328-2.029-1.557-3.73h12.409
		c0.337,0,0.612-0.044,0.839-0.132c0.252-0.098,0.454-0.276,0.602-0.526c0.135-0.23,0.223-0.522,0.271-0.894
		c0.044-0.337,0.067-0.776,0.067-1.314c0-1.699-0.253-3.245-0.754-4.594c-0.5-1.353-1.209-2.514-2.105-3.45
		c-0.897-0.938-1.984-1.661-3.232-2.153c-1.242-0.49-2.628-0.737-4.119-0.737C221.172,90.554,219.604,90.872,218.23,91.499z
		 M202.327,114.442v-14.255c0.918-1.724,2.173-2.626,3.802-2.626c0.475,0,0.872,0.032,1.177,0.095c0.345,0.07,0.65,0.106,0.91,0.106
		c0.347,0,0.634-0.083,0.854-0.247c0.229-0.171,0.382-0.455,0.451-0.84l0.853-5.115l0.027-0.163l-0.127-0.105
		c-0.66-0.549-1.54-0.829-2.612-0.829c-1.25,0-2.418,0.405-3.473,1.202c-0.865,0.654-1.668,1.516-2.391,2.568
		c-0.08-0.481-0.16-0.963-0.24-1.445c-0.061-0.324-0.134-0.593-0.216-0.814c-0.095-0.255-0.237-0.465-0.425-0.623
		c-0.181-0.154-0.404-0.269-0.664-0.339c-0.245-0.066-0.547-0.099-0.895-0.099h-3.918h-0.287V91.2v23.243v0.288h0.287h6.6h0.287
		V114.442z M182.243,96.146c0.473,0.248,0.88,0.658,1.211,1.217c0.32,0.541,0.571,1.253,0.748,2.118
		c0.173,0.852,0.262,1.912,0.262,3.151c0,1.3-0.11,2.424-0.328,3.338c-0.219,0.925-0.531,1.692-0.925,2.279
		c-0.402,0.6-0.888,1.043-1.44,1.319c-0.549,0.273-1.158,0.411-1.811,0.411c-0.674,0-1.325-0.124-1.938-0.368
		c-0.623-0.248-1.205-0.686-1.73-1.302l-0.068-0.081v-0.106V98.26v-0.099l0.063-0.079c0.291-0.37,0.583-0.696,0.875-0.981
		c0.303-0.294,0.635-0.54,0.991-0.73c0.353-0.189,0.739-0.337,1.153-0.44c0.41-0.103,0.875-0.154,1.379-0.154
		C181.253,95.776,181.778,95.9,182.243,96.146z M176.797,121.817v-8.302c0.533,0.416,1.111,0.763,1.727,1.034
		c0.814,0.357,1.826,0.539,3.012,0.539c1.445,0,2.784-0.32,3.978-0.953c1.188-0.629,2.224-1.516,3.075-2.634
		c0.847-1.112,1.514-2.439,1.983-3.944c0.468-1.501,0.706-3.159,0.706-4.927c0-1.885-0.208-3.596-0.618-5.086
		c-0.412-1.497-0.987-2.782-1.714-3.821c-0.732-1.049-1.617-1.861-2.631-2.418c-1.017-0.559-2.139-0.843-3.332-0.843
		c-0.786,0-1.523,0.086-2.189,0.256c-0.666,0.169-1.295,0.408-1.871,0.707c-0.576,0.299-1.123,0.661-1.627,1.075
		c-0.367,0.304-0.723,0.635-1.057,0.99c-0.115-0.401-0.231-0.804-0.347-1.207c-0.133-0.452-0.366-0.798-0.696-1.029
		c-0.326-0.228-0.729-0.343-1.198-0.343h-4.089h-0.287V91.2v30.618v0.287h0.287h6.602h0.287V121.817z M142.854,114.73h5.876
		c0.495,0,0.917-0.147,1.253-0.439c0.311-0.269,0.561-0.578,0.746-0.921l3.235-5.78c0.116-0.198,0.227-0.417,0.331-0.651
		c0.018-0.043,0.037-0.085,0.054-0.128c1.21,2.186,2.419,4.374,3.627,6.561c0.201,0.359,0.46,0.673,0.77,0.932
		c0.334,0.283,0.776,0.426,1.313,0.426h6.346h0.507l-0.261-0.435c-2.439-4.059-4.879-8.116-7.317-12.174
		c2.337-3.588,4.675-7.177,7.013-10.765l0.29-0.443h-0.53h-6.047c-0.381,0-0.711,0.085-0.982,0.256
		c-0.27,0.168-0.512,0.45-0.72,0.836l-2.81,5.177c-0.157,0.285-0.301,0.558-0.43,0.815c-0.041,0.081-0.08,0.161-0.115,0.244
		c-1.213-2.119-2.426-4.236-3.639-6.354c-0.193-0.342-0.427-0.592-0.689-0.745c-0.269-0.154-0.653-0.229-1.178-0.229h-6.346h-0.521
		l0.279,0.44c2.34,3.693,4.678,7.385,7.017,11.078c-2.44,3.954-4.878,7.907-7.316,11.861l-0.271,0.438H142.854z M133.033,95.763
		c0.534,0.273,0.972,0.637,1.303,1.081c0.325,0.439,0.563,0.944,0.708,1.501c0.14,0.545,0.211,1.113,0.211,1.686v0.287h-0.287
		h-8.241h-0.337l0.054-0.333c0.235-1.471,0.733-2.619,1.479-3.413c0.764-0.811,1.83-1.222,3.171-1.222
		C131.843,95.35,132.497,95.489,133.033,95.763L133.033,95.763z M126.297,91.499c-1.371,0.626-2.555,1.487-3.521,2.557
		c-0.965,1.069-1.715,2.33-2.229,3.748c-0.514,1.415-0.773,2.934-0.773,4.514c0,2.087,0.303,3.947,0.902,5.526
		c0.6,1.584,1.43,2.93,2.469,3.999c1.039,1.071,2.27,1.89,3.658,2.432c1.383,0.542,2.883,0.816,4.459,0.816
		c0.761,0,1.572-0.058,2.412-0.171c0.847-0.113,1.703-0.322,2.548-0.619c0.849-0.298,1.687-0.715,2.489-1.241
		c0.809-0.529,1.572-1.223,2.268-2.063l0.147-0.177l-0.14-0.182l-1.917-2.488c-0.314-0.47-0.796-0.717-1.42-0.717
		c-0.443,0-0.872,0.11-1.276,0.325c-0.361,0.195-0.76,0.413-1.194,0.652c-0.417,0.23-0.901,0.443-1.437,0.63
		c-0.52,0.182-1.154,0.275-1.885,0.275c-1.351,0-2.465-0.414-3.314-1.231c-0.805-0.775-1.328-2.029-1.557-3.73h12.408
		c0.339,0,0.613-0.044,0.84-0.132c0.252-0.098,0.455-0.276,0.602-0.526c0.135-0.231,0.223-0.523,0.271-0.894
		c0.044-0.337,0.066-0.776,0.066-1.314c0-1.699-0.254-3.245-0.753-4.594c-0.502-1.353-1.21-2.514-2.105-3.45
		c-0.899-0.938-1.986-1.661-3.233-2.153c-1.242-0.49-2.629-0.737-4.119-0.737C129.241,90.554,127.671,90.872,126.297,91.499z"/>
	<path fill="#FFED00" d="M272.482,93.646c-0.424-0.445-0.92-0.862-1.474-1.239c-0.554-0.375-1.172-0.705-1.84-0.981
		c-0.667-0.274-1.391-0.491-2.15-0.643c-0.762-0.153-1.559-0.229-2.367-0.229c-1.487,0-2.811,0.206-3.93,0.611
		c-1.126,0.408-2.075,0.966-2.824,1.663c-0.752,0.697-1.322,1.52-1.699,2.444c-0.375,0.919-0.564,1.902-0.564,2.92
		c0,1.093,0.156,2.041,0.467,2.819c0.311,0.777,0.725,1.444,1.229,1.984c0.502,0.535,1.08,0.984,1.723,1.333
		c0.628,0.342,1.274,0.638,1.922,0.879c0.645,0.242,1.278,0.457,1.901,0.645c0.603,0.183,1.147,0.381,1.616,0.592
		c0.447,0.202,0.813,0.442,1.086,0.715c0.243,0.244,0.362,0.552,0.362,0.94c0,0.214-0.042,0.425-0.127,0.629
		c-0.083,0.199-0.216,0.383-0.397,0.547c-0.18,0.166-0.431,0.299-0.744,0.398c-0.324,0.103-0.732,0.155-1.213,0.155
		c-0.686,0-1.256-0.084-1.697-0.25c-0.459-0.173-0.863-0.362-1.201-0.562l-0.99-0.583c-0.349-0.205-0.746-0.308-1.179-0.308
		c-0.467,0-0.858,0.103-1.16,0.306c-0.289,0.195-0.54,0.462-0.745,0.793l-1.535,2.559l-0.118,0.198l0.167,0.158
		c0.439,0.417,0.975,0.812,1.586,1.171c0.608,0.359,1.279,0.672,1.996,0.932c0.713,0.258,1.461,0.465,2.225,0.616
		c0.768,0.153,1.545,0.23,2.313,0.23c1.528,0,2.902-0.201,4.084-0.598c1.189-0.399,2.204-0.969,3.018-1.694
		c0.816-0.728,1.44-1.608,1.853-2.617c0.409-1,0.617-2.108,0.617-3.291c0-0.976-0.155-1.829-0.46-2.535
		c-0.305-0.704-0.717-1.312-1.223-1.806c-0.5-0.488-1.074-0.904-1.707-1.237c-0.619-0.326-1.262-0.613-1.907-0.856
		c-0.644-0.24-1.272-0.459-1.888-0.654c-0.596-0.19-1.138-0.393-1.609-0.604c-0.448-0.202-0.811-0.436-1.077-0.695
		c-0.235-0.229-0.35-0.514-0.35-0.87c0-0.508,0.182-0.891,0.556-1.172c0.395-0.296,0.984-0.446,1.756-0.446
		c0.549,0,1.043,0.067,1.468,0.2c0.441,0.138,0.839,0.288,1.19,0.446l1.012,0.46c0.348,0.158,0.703,0.239,1.056,0.239
		s0.651-0.075,0.887-0.223c0.233-0.145,0.441-0.375,0.638-0.701l1.49-2.441l0.114-0.188L272.482,93.646z M252.889,93.646
		c-0.424-0.445-0.92-0.862-1.474-1.239c-0.556-0.375-1.174-0.705-1.841-0.981c-0.666-0.274-1.391-0.491-2.15-0.643
		c-0.762-0.153-1.559-0.229-2.367-0.229c-1.488,0-2.811,0.206-3.931,0.611c-1.124,0.408-2.075,0.966-2.823,1.663
		c-0.751,0.697-1.323,1.52-1.7,2.444c-0.374,0.919-0.564,1.902-0.564,2.92c0,1.093,0.158,2.041,0.469,2.819
		c0.31,0.777,0.723,1.444,1.228,1.984c0.502,0.535,1.081,0.984,1.723,1.333c0.629,0.342,1.275,0.638,1.922,0.879
		c0.645,0.242,1.279,0.457,1.902,0.645c0.602,0.183,1.146,0.381,1.615,0.592c0.448,0.202,0.814,0.442,1.085,0.715
		c0.245,0.244,0.362,0.552,0.362,0.94c0,0.214-0.042,0.425-0.127,0.629c-0.082,0.199-0.215,0.383-0.396,0.547
		c-0.18,0.166-0.43,0.299-0.744,0.398c-0.325,0.103-0.732,0.155-1.212,0.155c-0.686,0-1.257-0.084-1.698-0.25
		c-0.459-0.173-0.863-0.362-1.201-0.562l-0.99-0.583c-0.35-0.205-0.745-0.308-1.178-0.308c-0.469,0-0.859,0.103-1.162,0.306
		c-0.289,0.195-0.539,0.462-0.743,0.793l-1.536,2.559l-0.117,0.198l0.167,0.158c0.439,0.417,0.973,0.812,1.585,1.171
		c0.607,0.359,1.28,0.672,1.996,0.932c0.713,0.258,1.463,0.465,2.224,0.616c0.769,0.153,1.547,0.23,2.314,0.23
		c1.526,0,2.901-0.201,4.083-0.598c1.188-0.399,2.204-0.969,3.017-1.694c0.817-0.728,1.44-1.608,1.853-2.617
		c0.41-1,0.618-2.108,0.618-3.291c0-0.976-0.155-1.829-0.46-2.535c-0.305-0.704-0.717-1.312-1.224-1.806
		c-0.5-0.488-1.074-0.904-1.706-1.237c-0.619-0.326-1.261-0.613-1.908-0.856c-0.643-0.24-1.271-0.459-1.887-0.654
		c-0.597-0.19-1.137-0.393-1.609-0.604c-0.449-0.202-0.812-0.436-1.076-0.695c-0.236-0.229-0.35-0.514-0.35-0.87
		c0-0.508,0.18-0.891,0.555-1.172c0.395-0.296,0.984-0.446,1.756-0.446c0.548,0,1.043,0.067,1.468,0.2
		c0.441,0.138,0.839,0.288,1.191,0.446l1.012,0.46c0.347,0.158,0.702,0.239,1.056,0.239c0.352,0,0.649-0.075,0.887-0.223
		c0.231-0.145,0.441-0.375,0.637-0.701l1.489-2.441l0.114-0.188L252.889,93.646z M224.963,95.763
		c0.535,0.273,0.973,0.637,1.303,1.081c0.326,0.439,0.564,0.945,0.708,1.501c0.142,0.545,0.212,1.113,0.212,1.686v0.287h-0.287
		h-8.242h-0.336l0.053-0.333c0.235-1.471,0.732-2.619,1.48-3.413c0.764-0.811,1.828-1.222,3.168-1.222
		C223.776,95.35,224.428,95.489,224.963,95.763z M218.23,91.499c-1.372,0.626-2.557,1.487-3.522,2.557
		c-0.965,1.069-1.715,2.33-2.229,3.748c-0.513,1.415-0.772,2.934-0.772,4.514c0,2.087,0.304,3.947,0.902,5.526
		c0.601,1.584,1.43,2.93,2.469,3.999c1.038,1.071,2.27,1.89,3.657,2.432c1.383,0.542,2.884,0.816,4.46,0.816
		c0.76,0,1.573-0.058,2.412-0.171c0.846-0.113,1.703-0.322,2.547-0.619c0.85-0.298,1.688-0.715,2.491-1.241
		c0.808-0.529,1.571-1.223,2.268-2.063l0.147-0.177l-0.142-0.182l-1.915-2.488c-0.314-0.47-0.797-0.717-1.42-0.717
		c-0.443,0-0.873,0.11-1.276,0.325c-0.362,0.195-0.762,0.413-1.194,0.652c-0.419,0.23-0.902,0.443-1.438,0.63
		c-0.52,0.182-1.154,0.275-1.885,0.275c-1.352,0-2.466-0.414-3.314-1.231c-0.805-0.775-1.328-2.029-1.557-3.73h12.409
		c0.337,0,0.612-0.044,0.839-0.132c0.252-0.098,0.454-0.276,0.602-0.526c0.135-0.23,0.223-0.522,0.271-0.894
		c0.044-0.337,0.067-0.776,0.067-1.314c0-1.699-0.253-3.245-0.754-4.594c-0.5-1.353-1.209-2.514-2.105-3.45
		c-0.897-0.938-1.984-1.661-3.232-2.153c-1.242-0.49-2.628-0.737-4.119-0.737C221.172,90.554,219.604,90.872,218.23,91.499z
		 M202.327,114.442v-14.255c0.918-1.724,2.173-2.626,3.802-2.626c0.475,0,0.872,0.032,1.177,0.095c0.345,0.07,0.65,0.106,0.91,0.106
		c0.347,0,0.634-0.083,0.854-0.247c0.229-0.171,0.382-0.455,0.451-0.84l0.853-5.115l0.027-0.163l-0.127-0.105
		c-0.66-0.549-1.54-0.829-2.612-0.829c-1.25,0-2.418,0.405-3.473,1.202c-0.865,0.654-1.668,1.516-2.391,2.568
		c-0.08-0.481-0.16-0.963-0.24-1.445c-0.061-0.324-0.134-0.593-0.216-0.814c-0.095-0.255-0.237-0.465-0.425-0.623
		c-0.181-0.154-0.404-0.269-0.664-0.339c-0.245-0.066-0.547-0.099-0.895-0.099h-3.918h-0.287V91.2v23.243v0.288h0.287h6.6h0.287
		V114.442z M182.243,96.146c0.473,0.248,0.88,0.658,1.211,1.217c0.32,0.541,0.571,1.253,0.748,2.118
		c0.173,0.852,0.262,1.912,0.262,3.151c0,1.3-0.11,2.424-0.328,3.338c-0.219,0.925-0.531,1.692-0.925,2.279
		c-0.402,0.6-0.888,1.043-1.44,1.319c-0.549,0.273-1.158,0.411-1.811,0.411c-0.674,0-1.325-0.124-1.938-0.368
		c-0.623-0.248-1.205-0.686-1.73-1.302l-0.068-0.081v-0.106V98.26v-0.099l0.063-0.079c0.291-0.37,0.583-0.696,0.875-0.981
		c0.303-0.294,0.635-0.54,0.991-0.73c0.353-0.189,0.739-0.337,1.153-0.44c0.41-0.103,0.875-0.154,1.379-0.154
		C181.253,95.776,181.778,95.9,182.243,96.146 M176.797,121.817v-8.302c0.533,0.416,1.111,0.763,1.727,1.034
		c0.814,0.357,1.826,0.539,3.012,0.539c1.445,0,2.784-0.32,3.978-0.953c1.188-0.629,2.224-1.516,3.075-2.634
		c0.847-1.112,1.514-2.439,1.983-3.944c0.468-1.501,0.706-3.159,0.706-4.927c0-1.885-0.208-3.596-0.618-5.086
		c-0.412-1.497-0.987-2.782-1.714-3.821c-0.732-1.049-1.617-1.861-2.631-2.418c-1.017-0.559-2.139-0.843-3.332-0.843
		c-0.786,0-1.523,0.086-2.189,0.256c-0.666,0.169-1.295,0.408-1.871,0.707c-0.576,0.299-1.123,0.661-1.627,1.075
		c-0.367,0.304-0.723,0.635-1.057,0.99c-0.115-0.401-0.231-0.804-0.347-1.207c-0.133-0.452-0.366-0.798-0.696-1.029
		c-0.326-0.228-0.729-0.343-1.198-0.343h-4.089h-0.287V91.2v30.618v0.287h0.287h6.602h0.287V121.817z M142.854,114.73h5.876
		c0.495,0,0.917-0.147,1.253-0.439c0.311-0.269,0.561-0.578,0.746-0.921l3.235-5.78c0.116-0.198,0.227-0.417,0.331-0.651
		c0.018-0.043,0.037-0.085,0.054-0.128c1.21,2.186,2.419,4.374,3.627,6.561c0.201,0.359,0.46,0.673,0.77,0.932
		c0.334,0.283,0.776,0.426,1.313,0.426h6.346h0.507l-0.261-0.435c-2.439-4.059-4.879-8.116-7.317-12.174
		c2.337-3.588,4.675-7.177,7.013-10.765l0.29-0.443h-0.53h-6.047c-0.381,0-0.711,0.085-0.982,0.256
		c-0.27,0.168-0.512,0.45-0.72,0.836l-2.81,5.177c-0.157,0.285-0.301,0.558-0.43,0.815c-0.041,0.081-0.08,0.161-0.115,0.244
		c-1.213-2.119-2.426-4.236-3.639-6.354c-0.193-0.342-0.427-0.592-0.689-0.745c-0.269-0.154-0.653-0.229-1.178-0.229h-6.346h-0.521
		l0.279,0.44c2.34,3.693,4.678,7.385,7.017,11.078c-2.44,3.954-4.878,7.907-7.316,11.861l-0.271,0.438H142.854z M133.033,95.763
		c0.534,0.273,0.972,0.637,1.303,1.081c0.325,0.439,0.563,0.944,0.708,1.501c0.14,0.545,0.211,1.113,0.211,1.686v0.287h-0.287
		h-8.241h-0.337l0.054-0.333c0.235-1.471,0.733-2.619,1.479-3.413c0.764-0.811,1.83-1.222,3.171-1.222
		C131.843,95.35,132.497,95.489,133.033,95.763L133.033,95.763z M126.297,91.499c-1.371,0.626-2.555,1.487-3.521,2.557
		c-0.965,1.069-1.715,2.33-2.229,3.748c-0.514,1.415-0.773,2.934-0.773,4.514c0,2.087,0.303,3.947,0.902,5.526
		c0.6,1.584,1.43,2.93,2.469,3.999c1.039,1.071,2.27,1.89,3.658,2.432c1.383,0.542,2.883,0.816,4.459,0.816
		c0.761,0,1.572-0.058,2.412-0.171c0.847-0.113,1.703-0.322,2.548-0.619c0.849-0.298,1.687-0.715,2.489-1.241
		c0.809-0.529,1.572-1.223,2.268-2.063l0.147-0.177l-0.14-0.182l-1.917-2.488c-0.314-0.47-0.796-0.717-1.42-0.717
		c-0.443,0-0.872,0.11-1.276,0.325c-0.361,0.195-0.76,0.413-1.194,0.652c-0.417,0.23-0.901,0.443-1.437,0.63
		c-0.52,0.182-1.154,0.275-1.885,0.275c-1.351,0-2.465-0.414-3.314-1.231c-0.805-0.775-1.328-2.029-1.557-3.73h12.408
		c0.339,0,0.613-0.044,0.84-0.132c0.252-0.098,0.455-0.276,0.602-0.526c0.135-0.231,0.223-0.523,0.271-0.894
		c0.044-0.337,0.066-0.776,0.066-1.314c0-1.699-0.254-3.245-0.753-4.594c-0.502-1.353-1.21-2.514-2.105-3.45
		c-0.899-0.938-1.986-1.661-3.233-2.153c-1.242-0.49-2.629-0.737-4.119-0.737C129.241,90.554,127.671,90.872,126.297,91.499z"/>
</g>
<g id="Layer_2">
	<path fill="none" stroke="#FFFFFF" stroke-width="1.7237" stroke-miterlimit="28.876" d="M234.801,24.367h5.691
		c3.865,0,6.788,0.915,8.689,2.72c1.912,1.817,2.883,4.347,2.883,7.521c0,1.55-0.21,3.02-0.623,4.368
		c-0.428,1.389-1.123,2.621-2.07,3.661c-0.95,1.044-2.176,1.869-3.646,2.451c-1.447,0.574-3.209,0.866-5.233,0.866h-5.691h-0.861
		v-0.863V25.229v-0.862H234.801z M238.4,56.666c0.921,0,1.621,0.143,2.081,0.425c0.461,0.283,0.883,0.789,1.256,1.502l10.124,19.449
		c1.189,2.261,3.163,3.406,5.87,3.406h12.803H272l-0.714-1.281l-12.969-23.311c-0.655-1.176-1.436-2.191-2.32-3.016
		c-0.461-0.428-0.943-0.823-1.443-1.181c1.469-0.741,2.813-1.623,4.006-2.634c1.58-1.339,2.933-2.881,4.02-4.585
		c1.086-1.705,1.916-3.585,2.469-5.592c0.547-1.998,0.825-4.147,0.825-6.389c0-2.938-0.468-5.7-1.392-8.207
		c-0.938-2.543-2.459-4.777-4.52-6.641c-2.05-1.852-4.719-3.313-7.93-4.343c-3.184-1.018-7.065-1.534-11.539-1.534H220.66h-0.862
		v0.861v66.99v0.862h0.862h14.142h0.863v-0.862v-23.92H238.4z M172.78,13.596v66.99v0.862h0.861h39.246h0.862v-0.862V68.632V67.77
		h-0.862h-24.158V53.54h18.301h0.863v-0.862V41.183v-0.862h-0.863h-18.301V26.413h24.158h0.862V25.55V13.596v-0.861h-0.862h-39.246
		h-0.861V13.596z M136.355,24.367h7.364c1.879,0,3.537,0.266,4.928,0.792c1.414,0.534,2.605,1.311,3.545,2.307
		c0.933,0.993,1.637,2.19,2.093,3.561c0.446,1.338,0.673,2.838,0.673,4.457c0,3.655-0.884,6.563-2.628,8.646
		c-1.782,2.126-4.68,3.205-8.61,3.205h-7.364h-0.862V46.47V25.229v-0.862H136.355z M143.719,59.057
		c4.293,0,8.073-0.583,11.235-1.729c3.187-1.158,5.86-2.793,7.948-4.866c2.092-2.075,3.667-4.597,4.684-7.5
		c1.004-2.868,1.513-6.058,1.513-9.479c0-3.179-0.495-6.185-1.474-8.933c-0.986-2.778-2.542-5.224-4.62-7.269
		c-2.075-2.04-4.74-3.66-7.926-4.817c-3.163-1.147-6.985-1.729-11.36-1.729h-21.506h-0.863v0.861v66.99v0.862h0.863h14.142h0.862
		v-0.862V59.057H143.719z M82.806,66.493c-1.362-0.63-2.531-1.552-3.472-2.741c-0.958-1.208-1.703-2.704-2.212-4.443
		c-0.519-1.767-0.781-3.813-0.781-6.079V13.596v-0.861h-0.862H61.336h-0.862v0.861v39.679c0,4.187,0.622,8.088,1.847,11.595
		c1.231,3.526,3.036,6.612,5.365,9.17c2.333,2.563,5.208,4.584,8.542,6.006c3.327,1.419,7.129,2.138,11.3,2.138
		c4.142,0,7.929-0.719,11.258-2.138c3.335-1.422,6.209-3.442,8.542-6.006c2.327-2.557,4.138-5.641,5.384-9.167
		c1.241-3.509,1.87-7.411,1.87-11.598V13.596v-0.861h-0.863H99.578h-0.862v0.861v39.679c0,2.268-0.263,4.313-0.781,6.08
		c-0.509,1.736-1.252,3.222-2.21,4.417c-0.942,1.176-2.112,2.091-3.475,2.722c-1.371,0.633-2.959,0.954-4.722,0.954
		C85.765,67.447,84.177,67.126,82.806,66.493z M55.315,19.382c-1.129-1.145-2.426-2.185-3.856-3.089
		c-1.419-0.898-2.966-1.681-4.6-2.326c-1.638-0.647-3.388-1.142-5.205-1.473c-1.814-0.33-3.702-0.497-5.614-0.497
		c-3.449,0-6.563,0.589-9.253,1.749c-2.69,1.16-4.995,2.734-6.851,4.679c-1.856,1.944-3.282,4.19-4.24,6.676
		c-0.953,2.479-1.438,5.058-1.438,7.666c0,3.215,0.412,5.968,1.225,8.182c0.813,2.223,1.904,4.11,3.241,5.611
		c1.33,1.494,2.865,2.716,4.565,3.634c1.649,0.89,3.366,1.65,5.102,2.261c1.713,0.602,3.386,1.15,5.016,1.644
		c1.563,0.474,2.973,1.027,4.19,1.645c1.151,0.583,2.09,1.326,2.791,2.205c0.663,0.832,0.983,1.905,0.983,3.279
		c0,2.424-0.618,4.193-1.838,5.258c-1.254,1.094-3.077,1.649-5.417,1.649c-1.774,0-3.324-0.271-4.605-0.806
		c-1.339-0.56-2.538-1.184-3.562-1.856c-1.069-0.701-2.027-1.343-2.874-1.921c-0.994-0.68-2.01-1.024-3.019-1.024
		c-0.797,0-1.553,0.211-2.245,0.629c-0.687,0.416-1.226,0.971-1.605,1.653l-4.177,7.253l-0.314,0.545l0.423,0.466
		c1.242,1.363,2.717,2.617,4.387,3.725c1.651,1.095,3.444,2.057,5.328,2.857c1.883,0.799,3.856,1.426,5.864,1.864
		c2.019,0.44,4.031,0.664,5.979,0.664c3.558,0,6.789-0.604,9.603-1.793c2.82-1.191,5.229-2.854,7.16-4.944
		c1.924-2.083,3.412-4.555,4.424-7.349c1.006-2.779,1.516-5.802,1.516-8.983c0-2.883-0.415-5.396-1.231-7.466
		c-0.817-2.067-1.908-3.851-3.243-5.301c-1.328-1.442-2.867-2.645-4.574-3.577c-1.654-0.9-3.371-1.697-5.101-2.369
		c-1.717-0.665-3.396-1.267-5.042-1.808c-1.58-0.519-3.004-1.099-4.23-1.72c-1.166-0.592-2.114-1.298-2.818-2.099
		c-0.644-0.732-0.957-1.645-0.957-2.788c0-1.887,0.55-3.33,1.68-4.411c1.125-1.077,2.917-1.624,5.324-1.624
		c1.423,0,2.702,0.207,3.801,0.614c1.146,0.425,2.176,0.905,3.062,1.427l2.504,1.492c0.87,0.523,1.717,0.79,2.515,0.79
		c0.922,0,1.702-0.25,2.316-0.741c0.552-0.44,1.051-1.063,1.529-1.902l3.541-7.267l0.267-0.548L55.315,19.382z"/>
	<path fill="#FFFFFF" d="M234.801,24.367h5.691c3.865,0,6.788,0.915,8.689,2.72c1.912,1.817,2.883,4.347,2.883,7.521
		c0,1.55-0.21,3.02-0.623,4.368c-0.428,1.389-1.123,2.621-2.07,3.661c-0.95,1.044-2.176,1.869-3.646,2.451
		c-1.447,0.574-3.209,0.866-5.233,0.866h-5.691h-0.861v-0.863V25.229v-0.862H234.801z M238.4,56.666
		c0.921,0,1.621,0.143,2.081,0.425c0.461,0.283,0.883,0.789,1.256,1.502l10.124,19.449c1.189,2.261,3.163,3.406,5.87,3.406h12.803
		H272l-0.714-1.281l-12.969-23.311c-0.655-1.176-1.436-2.191-2.32-3.016c-0.461-0.428-0.943-0.823-1.443-1.181
		c1.469-0.741,2.813-1.623,4.006-2.634c1.58-1.339,2.933-2.881,4.02-4.585c1.086-1.705,1.916-3.585,2.469-5.592
		c0.547-1.998,0.825-4.147,0.825-6.389c0-2.938-0.468-5.7-1.392-8.207c-0.938-2.543-2.459-4.777-4.52-6.641
		c-2.05-1.852-4.719-3.313-7.93-4.343c-3.184-1.018-7.065-1.534-11.539-1.534H220.66h-0.862v0.861v66.99v0.862h0.862h14.142h0.863
		v-0.862v-23.92H238.4z M172.78,13.596v66.99v0.862h0.861h39.246h0.862v-0.862V68.632V67.77h-0.862h-24.158V53.54h18.301h0.863
		v-0.862V41.183v-0.862h-0.863h-18.301V26.413h24.158h0.862V25.55V13.596v-0.861h-0.862h-39.246h-0.861V13.596z M136.355,24.367
		h7.364c1.879,0,3.537,0.266,4.928,0.792c1.414,0.534,2.605,1.311,3.545,2.307c0.933,0.993,1.637,2.19,2.093,3.561
		c0.446,1.338,0.673,2.838,0.673,4.457c0,3.655-0.884,6.563-2.628,8.646c-1.782,2.126-4.68,3.205-8.61,3.205h-7.364h-0.862V46.47
		V25.229v-0.862H136.355z M143.719,59.057c4.293,0,8.073-0.583,11.235-1.729c3.187-1.158,5.86-2.793,7.948-4.866
		c2.092-2.075,3.667-4.597,4.684-7.5c1.004-2.868,1.513-6.058,1.513-9.479c0-3.179-0.495-6.185-1.474-8.933
		c-0.986-2.778-2.542-5.224-4.62-7.269c-2.075-2.04-4.74-3.66-7.926-4.817c-3.163-1.147-6.985-1.729-11.36-1.729h-21.506h-0.863
		v0.861v66.99v0.862h0.863h14.142h0.862v-0.862V59.057H143.719z M82.806,66.493c-1.362-0.63-2.531-1.552-3.472-2.741
		c-0.958-1.208-1.703-2.704-2.212-4.443c-0.519-1.767-0.781-3.813-0.781-6.079V13.596v-0.861h-0.862H61.336h-0.862v0.861v39.679
		c0,4.187,0.622,8.088,1.847,11.595c1.231,3.526,3.036,6.612,5.365,9.17c2.333,2.563,5.208,4.584,8.542,6.006
		c3.327,1.419,7.129,2.138,11.3,2.138c4.142,0,7.929-0.719,11.258-2.138c3.335-1.422,6.209-3.442,8.542-6.006
		c2.327-2.557,4.138-5.641,5.384-9.167c1.241-3.509,1.87-7.411,1.87-11.598V13.596v-0.861h-0.863H99.578h-0.862v0.861v39.679
		c0,2.268-0.263,4.313-0.781,6.08c-0.509,1.736-1.252,3.222-2.21,4.417c-0.942,1.176-2.112,2.091-3.475,2.722
		c-1.371,0.633-2.959,0.954-4.722,0.954C85.765,67.447,84.177,67.126,82.806,66.493z M55.315,19.382
		c-1.129-1.145-2.426-2.185-3.856-3.089c-1.419-0.898-2.966-1.681-4.6-2.326c-1.638-0.647-3.388-1.142-5.205-1.473
		c-1.814-0.33-3.702-0.497-5.614-0.497c-3.449,0-6.563,0.589-9.253,1.749c-2.69,1.16-4.995,2.734-6.851,4.679
		c-1.856,1.944-3.282,4.19-4.24,6.676c-0.953,2.479-1.438,5.058-1.438,7.666c0,3.215,0.412,5.968,1.225,8.182
		c0.813,2.223,1.904,4.11,3.241,5.611c1.33,1.494,2.865,2.716,4.565,3.634c1.649,0.89,3.366,1.65,5.102,2.261
		c1.713,0.602,3.386,1.15,5.016,1.644c1.563,0.474,2.973,1.027,4.19,1.645c1.151,0.583,2.09,1.326,2.791,2.205
		c0.663,0.832,0.983,1.905,0.983,3.279c0,2.424-0.618,4.193-1.838,5.258c-1.254,1.094-3.077,1.649-5.417,1.649
		c-1.774,0-3.324-0.271-4.605-0.806c-1.339-0.56-2.538-1.184-3.562-1.856c-1.069-0.701-2.027-1.343-2.874-1.921
		c-0.994-0.68-2.01-1.024-3.019-1.024c-0.797,0-1.553,0.211-2.245,0.629c-0.687,0.416-1.226,0.971-1.605,1.653l-4.177,7.253
		l-0.314,0.545l0.423,0.466c1.242,1.363,2.717,2.617,4.387,3.725c1.651,1.095,3.444,2.057,5.328,2.857
		c1.883,0.799,3.856,1.426,5.864,1.864c2.019,0.44,4.031,0.664,5.979,0.664c3.558,0,6.789-0.604,9.603-1.793
		c2.82-1.191,5.229-2.854,7.16-4.944c1.924-2.083,3.412-4.555,4.424-7.349c1.006-2.779,1.516-5.802,1.516-8.983
		c0-2.883-0.415-5.396-1.231-7.466c-0.817-2.067-1.908-3.851-3.243-5.301c-1.328-1.442-2.867-2.645-4.574-3.577
		c-1.654-0.9-3.371-1.697-5.101-2.369c-1.717-0.665-3.396-1.267-5.042-1.808c-1.58-0.519-3.004-1.099-4.23-1.72
		c-1.166-0.592-2.114-1.298-2.818-2.099c-0.644-0.732-0.957-1.645-0.957-2.788c0-1.887,0.55-3.33,1.68-4.411
		c1.125-1.077,2.917-1.624,5.324-1.624c1.423,0,2.702,0.207,3.801,0.614c1.146,0.425,2.176,0.905,3.062,1.427l2.504,1.492
		c0.87,0.523,1.717,0.79,2.515,0.79c0.922,0,1.702-0.25,2.316-0.741c0.552-0.44,1.051-1.063,1.529-1.902l3.541-7.267l0.267-0.548
		L55.315,19.382z"/>
</g>
</svg>
